<svg width="368" height="298" viewBox="0 0 368 298" fill="none" xmlns="http://www.w3.org/2000/svg">
<path d="M326.532 147.127C326.532 72.1817 265.781 11.4226 190.836 11.4226C115.89 11.4226 55.135 72.1817 55.135 147.127C55.135 192.515 77.4461 232.676 111.674 257.307L99.1511 291.462C98.9634 291.971 98.9015 292.519 98.9708 293.057C99.04 293.596 99.2384 294.11 99.5489 294.556C99.8595 295.001 100.273 295.365 100.754 295.617C101.236 295.868 101.771 296 102.314 296H279.357C279.901 296 280.436 295.869 280.918 295.617C281.4 295.366 281.814 295.003 282.126 294.557C282.438 294.112 282.637 293.598 282.708 293.059C282.778 292.52 282.718 291.972 282.532 291.462L270.001 257.307C304.225 232.676 326.536 192.515 326.536 147.127" fill="#6EDBFF"/>
<path d="M326.532 147.127C326.532 72.1817 265.781 11.4226 190.836 11.4226C115.89 11.4226 55.135 72.1817 55.135 147.127C55.135 192.515 77.4461 232.676 111.674 257.307L99.1511 291.462C98.9634 291.971 98.9015 292.519 98.9708 293.057C99.04 293.596 99.2384 294.11 99.5489 294.556C99.8595 295.001 100.273 295.365 100.754 295.617C101.236 295.868 101.771 296 102.314 296H279.357C279.901 296 280.436 295.869 280.918 295.617C281.4 295.366 281.815 295.003 282.126 294.557C282.438 294.112 282.637 293.598 282.708 293.059C282.778 292.52 282.718 291.972 282.532 291.462L270.001 257.307C304.225 232.676 326.536 192.515 326.536 147.127" stroke="white" stroke-width="2" stroke-miterlimit="10" stroke-linejoin="round"/>
<path d="M65.3697 136.076C65.0796 136.921 64.4676 137.616 63.667 138.012C62.8665 138.407 61.9422 138.47 61.0955 138.186C60.2505 137.897 59.554 137.285 59.1581 136.485C58.7621 135.684 58.6987 134.759 58.9817 133.912L59.4791 132.455L31.0637 122.78L30.5663 124.233C30.2779 125.079 29.6664 125.776 28.8654 126.172C28.0645 126.568 27.1393 126.631 26.2922 126.347L23.0905 125.255L21 131.394L24.2017 132.482C25.0506 132.772 25.7497 133.387 26.1453 134.192C26.5409 134.998 26.6008 135.927 26.3116 136.776L25.8181 138.229L40.3309 143.172L40.8243 141.718C41.1134 140.869 41.7279 140.17 42.5328 139.774C43.3376 139.378 44.2668 139.318 45.116 139.607C45.9651 139.896 46.6647 140.51 47.0607 141.315C47.4568 142.12 47.5169 143.049 47.2278 143.898L46.7343 145.355L87.0163 159.071L92.2813 143.618L65.8592 134.623L65.3697 136.076Z" fill="black" stroke="black" stroke-width="1.2" stroke-linecap="round" stroke-linejoin="round"/>
<path d="M66.069 134.048C65.7798 134.893 65.1679 135.589 64.3671 135.985C63.5663 136.38 62.6415 136.442 61.7949 136.158C60.9453 135.869 60.2453 135.254 59.8489 134.449C59.4525 133.644 59.3921 132.714 59.6811 131.865L60.1785 130.411L31.7631 120.736L31.2502 122.189C30.9609 123.034 30.3492 123.731 29.5486 124.127C28.7479 124.523 27.8232 124.586 26.976 124.303L23.7704 123.211L21.6838 129.347L24.8856 130.439C25.7299 130.729 26.4254 131.341 26.8206 132.141C27.2158 132.942 27.2786 133.866 26.9954 134.713L26.4903 136.178L41.038 141.132L41.5276 139.675C41.8167 138.825 42.4312 138.126 43.236 137.73C44.0409 137.334 44.9701 137.274 45.8192 137.563C46.6684 137.852 47.3679 138.466 47.764 139.271C48.16 140.076 48.2201 141.005 47.9311 141.854L47.4376 143.308L87.7196 157.028L92.9846 141.575L66.5625 132.58L66.069 134.048Z" fill="white" stroke="black" stroke-width="1.2" stroke-linecap="round" stroke-linejoin="round"/>
<path d="M136.506 189.214L148.105 155.142C148.658 153.517 147.789 151.751 146.164 151.197L97.5372 134.643C95.912 134.09 94.146 134.959 93.5928 136.584L81.9937 170.656C81.4404 172.282 82.3094 174.048 83.9346 174.601L132.562 191.155C134.187 191.708 135.953 190.839 136.506 189.214Z" fill="black"/>
<path d="M137.994 184.85L149.871 149.961C150.424 148.336 149.555 146.57 147.93 146.017L99.303 129.463C97.6778 128.909 95.9119 129.778 95.3586 131.404L83.4816 166.292C82.9283 167.917 83.7973 169.683 85.4224 170.237L134.05 186.791C135.675 187.344 137.441 186.475 137.994 184.85Z" fill="black"/>
<path d="M138.438 183.473C138.049 184.613 137.223 185.553 136.142 186.085C135.061 186.617 133.813 186.697 132.672 186.31L86.1498 170.639C85.0094 170.25 84.07 169.424 83.5381 168.343C83.0063 167.262 82.9254 166.013 83.3133 164.873L84.8675 160.268" stroke="#6EDBFF" stroke-width="1.2" stroke-linecap="round" stroke-linejoin="round"/>
<path d="M117.025 162.401L93.9209 167.802L96.3144 160.773L112.245 157.214L101.809 144.683L104.113 137.918L119.03 156.27L133.22 161.1L131.141 167.2L117.025 162.401Z" fill="#6EDBFF"/>
<path d="M118.252 75.0998L120.428 69.1432L107.567 45.6664L102.174 43.5021L102.955 37.2502L100.278 32.366L91.3253 24.8434L88.3372 26.4637L87.8477 41.4699L120.339 100.776L133.737 93.4359L126.451 80.1355L121 80.12L118.252 75.0998Z" fill="black" stroke="black" stroke-width="1.2" stroke-linecap="round" stroke-linejoin="round"/>
<path d="M137.312 157.171L169.053 139.778C170.559 138.953 171.111 137.064 170.286 135.559L145.602 90.5104C144.777 89.0048 142.888 88.4531 141.382 89.278L109.64 106.67C108.135 107.495 107.583 109.385 108.408 110.89L133.092 155.939C133.917 157.444 135.806 157.996 137.312 157.171Z" fill="white" stroke="black" stroke-width="1.2" stroke-linecap="round" stroke-linejoin="round"/>
<path d="M141.538 154.859L173.859 137.149C175.365 136.324 175.916 134.435 175.091 132.929L150.408 87.8811C149.583 86.3755 147.694 85.8238 146.188 86.6487L113.867 104.359C112.362 105.184 111.81 107.073 112.635 108.578L137.318 153.627C138.143 155.132 140.033 155.684 141.538 154.859Z" fill="white" stroke="black" stroke-width="1.2" stroke-linecap="round" stroke-linejoin="round"/>
<path d="M146.979 98.0598L147.655 99.2876L144.865 132.393L160.101 124.047L162.949 129.249L138.858 142.461L138.194 141.229L140.941 108.147L125.787 116.446L122.939 111.247L146.979 98.0598Z" fill="#6EDBFF"/>
<path d="M121.241 73.4795L123.417 67.5229L110.555 44.0461L105.162 41.8818L105.943 35.6299L103.266 30.7457L91.3255 24.8434L90.8398 39.8496L123.327 99.1516L136.725 91.8156L129.439 78.5152L123.992 78.4997L121.241 73.4795Z" fill="white" stroke="black" stroke-width="1.2" stroke-linecap="round" stroke-linejoin="round"/>
<path d="M94.8613 31.2935L130.026 95.4836" stroke="black" stroke-width="1.2" stroke-linecap="round" stroke-linejoin="round"/>
<path d="M162.906 2V12.6077H167.064V18.3351H157.894V34.6701H172.127V2H162.906Z" fill="white" stroke="black" stroke-width="1.2" stroke-linecap="round" stroke-linejoin="round"/>
<path d="M181.153 2H173.016V84.2776H181.153V2Z" fill="black" stroke="black" stroke-width="1.2" stroke-linecap="round" stroke-linejoin="round"/>
<path d="M178.312 2H170.176V84.2776H178.312V2Z" fill="white"/>
<path d="M198.968 82.5485H160.699C158.982 82.5485 157.591 83.9402 157.591 85.6569V137.025C157.591 138.741 158.982 140.133 160.699 140.133H198.968C200.685 140.133 202.077 138.741 202.077 137.025V85.6569C202.077 83.9402 200.685 82.5485 198.968 82.5485Z" fill="black"/>
<path d="M192.079 82.5485H155.224C153.507 82.5485 152.116 83.9402 152.116 85.6569V137.025C152.116 138.741 153.507 140.133 155.224 140.133H192.079C193.796 140.133 195.188 138.741 195.188 137.025V85.6569C195.188 83.9402 193.796 82.5485 192.079 82.5485Z" fill="black"/>
<path d="M186.188 81.9734H190.661C191.867 81.9734 193.023 82.4524 193.875 83.305C194.728 84.1576 195.207 85.3139 195.207 86.5196V135.587C195.207 136.793 194.728 137.949 193.875 138.802C193.023 139.654 191.867 140.133 190.661 140.133" stroke="#6EDBFF" stroke-width="1.2" stroke-linecap="round" stroke-linejoin="round"/>
<path d="M170.409 98.8758H160.229V92.9542H187.082V98.8758H176.863V127.979H170.409V98.8758Z" fill="#6EDBFF"/>
<path d="M170.176 18.3351V2H178.312V84.2776H170.176V27.5478" stroke="black" stroke-width="1.2" stroke-linecap="round" stroke-linejoin="round"/>
<path d="M187.521 27.6255V24.894H192.992V19.221H185.987V10.898H190.537V2H181.153V34.6701H194.562V27.6255H187.521Z" fill="black" stroke="black" stroke-width="1.2" stroke-linecap="round" stroke-linejoin="round"/>
<path d="M184.685 27.6255V24.894H190.152V19.221H183.146V10.898H187.696V2H178.312V34.6701H191.721V27.6255H184.685Z" fill="white" stroke="black" stroke-width="1.2" stroke-linecap="round" stroke-linejoin="round"/>
<path d="M245.37 123.093L216.819 97.6106C215.538 96.4674 213.573 96.579 212.43 97.8598L178.225 136.183C177.082 137.464 177.194 139.429 178.475 140.572L207.026 166.055C208.306 167.198 210.271 167.086 211.415 165.806L245.619 127.482C246.763 126.202 246.651 124.237 245.37 123.093Z" fill="#6EDBFF" stroke="black" stroke-width="1.2" stroke-linecap="round" stroke-linejoin="round"/>
<path d="M240.233 118.506L212.737 93.9648C211.456 92.8216 209.491 92.9332 208.348 94.214L174.143 132.537C173 133.818 173.112 135.783 174.392 136.926L201.888 161.467C203.169 162.61 205.134 162.499 206.277 161.218L240.482 122.895C241.625 121.614 241.514 119.649 240.233 118.506Z" fill="white" stroke="black" stroke-width="1.2" stroke-linecap="round" stroke-linejoin="round"/>
<path d="M216.931 111.671L222.157 116.334L208.799 151.359L203.712 146.82L207.819 136.465L198.346 128.018L188.52 133.259L183.643 128.908L216.931 111.671ZM210.046 130.815L214.553 119.38L203.705 125.154L210.046 130.815Z" fill="#6EDBFF"/>
<path d="M233.721 112.763L222.161 102.4L283.597 33.5705L295.156 43.9334L233.721 112.763Z" fill="white" stroke="black" stroke-width="1.2" stroke-linecap="round" stroke-linejoin="round"/>
<path d="M284.677 77.3107L289.071 72.3915L293.551 76.3898L300.215 68.9216L295.735 64.9234L300.13 60.0003L304.61 63.9986L310.454 57.4514L300.542 48.6077L273.405 79.0125L283.313 87.8601L289.157 81.3128L284.677 77.3107Z" fill="#6EDBFF" stroke="black" stroke-width="1.2" stroke-linecap="round" stroke-linejoin="round"/>
<path d="M270.73 66.6053L275.919 71.2366L293.089 51.9997L287.9 47.3683L270.73 66.6053Z" fill="white"/>
<path d="M282.493 63.8704L293.097 51.9921L287.906 47.3605L285.784 49.7385" stroke="black" stroke-width="1.2" stroke-linecap="round" stroke-linejoin="round"/>
<path d="M281.522 54.5178L270.735 66.5981L275.927 71.2297L279.412 67.3247" stroke="black" stroke-width="1.2" stroke-linecap="round" stroke-linejoin="round"/>
<path d="M282.213 75.1153L286.608 70.1923L291.088 74.1905L297.756 66.7224L293.276 62.7241L297.666 57.8011L302.15 61.8033L307.99 55.256L298.078 46.4085L270.941 76.8133L280.853 85.6608L286.693 79.1136L282.213 75.1153Z" fill="white"/>
<path d="M279.412 67.3247L270.941 76.8133L280.853 85.6608L286.693 79.1136L282.213 75.1153L286.608 70.1923L291.088 74.1905L297.756 66.7224L293.276 62.7241L297.666 57.8011L302.15 61.8033L307.99 55.256L298.078 46.4085L282.493 63.8704" stroke="black" stroke-width="1.2" stroke-linecap="round" stroke-linejoin="round"/>
<path d="M276.128 60.556L268.225 69.4113" stroke="black" stroke-width="1.2" stroke-linecap="round" stroke-linejoin="round"/>
<path d="M292.821 41.8391L287.793 47.4693" stroke="black" stroke-width="1.2" stroke-linecap="round" stroke-linejoin="round"/>
<path d="M219.647 192.81C218.842 194.098 217.833 195.246 216.659 196.21C224.648 199.633 258.973 223.541 256.044 219.943C243.058 204.012 223.949 195.25 219.659 192.81H219.647Z" fill="white"/>
<path d="M149.365 189.488C150.818 183.733 156.876 154.475 153.347 141.641C151.731 135.766 145.825 131.927 141.108 138.175C135.485 146.952 125.146 175.127 123.152 194.178C121.373 211.208 135.427 231.134 154.579 248.829C176.296 268.894 197.865 261.445 217.879 284.036C222.468 289.263 228.566 292.938 235.331 294.553C242.096 296.169 249.196 295.645 255.651 293.055L266.531 288.648L268.765 256.682C268.521 255.644 279.078 254.739 274.477 246.968C270.106 239.585 264.246 231.324 257.804 226.281C246.777 217.655 230.216 213.07 207.408 217.732C205.186 212.178 204.609 206.101 205.745 200.228C214.616 200.414 221.171 192.845 220.211 185.295C219.993 183.566 203.409 180.609 191.811 186.333C189.726 187.377 187.87 188.828 186.355 190.6C184.839 192.373 183.694 194.431 182.987 196.653C180.57 204.086 179.202 216.147 182.237 227.571" fill="#6EDBFF"/>
<path d="M191.811 186.302C189.725 187.346 187.87 188.796 186.355 190.569C184.839 192.341 183.694 194.4 182.987 196.622C182.684 197.551 182.396 198.565 182.136 199.622C190.836 187.926 219.325 188.653 220.215 185.264C219.993 183.547 203.409 180.59 191.811 186.302Z" fill="white"/>
<path d="M150.895 216.411C148.584 212.607 147.06 205.59 147.196 200.787C149.365 174.385 160.831 154.483 182.474 128.492C188.182 121.731 198.311 125.57 194.321 141.38C191.64 152 184.452 163.691 178.048 172.543C174.94 190.623 175.091 206.736 171.967 224.804" fill="#6EDBFF"/>
<path d="M164.002 220.915C158.372 213.167 161.371 194.291 165.673 182.265C167.5 177.173 170.953 172.825 175.499 169.893C185.314 163.536 201.21 155.905 210.233 151.922C211.143 151.507 212.174 151.439 213.131 151.73C214.088 152.021 214.906 152.652 215.432 153.503C219.803 160.929 210.38 173.472 198.424 181.262C195.235 183.307 192.496 185.982 190.376 189.122C188.257 192.262 186.8 195.802 186.095 199.524C185.466 202.92 185.157 206.368 185.17 209.821C185.17 211.861 187.113 230.326 186.814 232.358" fill="#6EDBFF"/>
<path d="M181.293 236.877C170.908 238.448 160.295 237.412 150.41 233.861C143.989 231.522 137.996 228.141 132.672 223.856" stroke="black" stroke-width="1.2" stroke-linecap="round" stroke-linejoin="round"/>
<path d="M270.405 240.537C275.091 253.872 250.658 286.55 218.855 285.167L226.521 296H279.365C279.909 296 280.444 295.869 280.926 295.617C281.408 295.366 281.822 295.003 282.134 294.557C282.445 294.112 282.645 293.598 282.716 293.059C282.786 292.52 282.726 291.972 282.54 291.462L270.009 257.307C272.322 255.642 274.579 253.906 276.781 252.101L277.119 251.825C277.119 251.825 273.226 243.809 270.405 240.537Z" fill="black"/>
<path d="M219.659 192.81C224.955 195.821 252.854 208.489 263.912 232.358" stroke="black" stroke-width="1.2" stroke-linecap="round" stroke-linejoin="round"/>
<path d="M150.476 136.722C147.896 134.328 144.24 134.025 141.108 138.175C135.485 146.952 125.146 175.127 123.152 194.178C122.786 198.204 123.164 202.264 124.268 206.153C121.758 187.732 143.187 139.391 150.476 136.722Z" fill="white"/>
<path d="M182.474 128.492C162.354 152.656 151.032 171.556 147.795 195.324C152.815 171.393 182.249 126.635 193.466 128.01C190.851 124.202 185.874 124.462 182.474 128.492Z" fill="white"/>
<path d="M164.18 186.9C170.036 170.86 212.525 158.827 216.325 158.885C216.573 157.039 216.259 155.161 215.424 153.496C214.904 152.653 214.096 152.027 213.15 151.735C212.203 151.444 211.183 151.506 210.279 151.91C201.265 155.885 185.353 163.524 175.526 169.885C170.979 172.818 167.524 177.165 165.692 182.257C165.152 183.714 164.651 185.276 164.18 186.9Z" fill="white"/>
<path d="M151.634 178.464C151.941 176.751 152.248 174.917 152.543 173.025C154.198 162.273 155.411 149.159 153.347 141.656C151.731 135.781 145.825 131.942 141.108 138.19C135.485 146.968 125.146 175.142 123.152 194.193C121.373 211.224 135.427 231.149 154.579 248.844C178.452 270.903 202.543 259.724 224.19 291.73" stroke="black" stroke-width="1.2" stroke-linecap="round" stroke-linejoin="round"/>
<path d="M150.895 216.411C148.584 212.607 147.06 205.59 147.196 200.787C149.365 174.385 160.831 154.483 182.474 128.492C188.182 121.731 198.311 125.57 194.321 141.38C192.308 149.346 187.766 157.914 182.917 165.432" stroke="black" stroke-width="1.2" stroke-linecap="round" stroke-linejoin="round"/>
<path d="M164.002 220.915C158.371 213.143 161.375 194.287 165.672 182.257C167.504 177.166 170.96 172.818 175.507 169.885C185.334 163.524 201.245 155.897 210.26 151.91C212.136 151.083 214.534 151.65 215.424 153.496C222.484 168.117 188.368 188.575 188.368 188.575" stroke="black" stroke-width="1.2" stroke-linecap="round" stroke-linejoin="round"/>
<path d="M182.237 227.551C179.206 216.135 180.566 204.086 182.979 196.653C184.421 192.212 187.692 188.186 192.036 186.473C204.202 181.67 218.909 182.509 220.211 185.276C223.486 192.227 214.134 199.524 205.745 200.208C204.609 206.082 205.186 212.158 207.408 217.713C230.22 213.05 246.777 217.643 257.804 226.261C264.612 231.592 270.172 240.529 274.796 248.561" stroke="black" stroke-width="1.2" stroke-linecap="round" stroke-linejoin="round"/>
<path d="M266.892 93.9371C274.418 100.374 280.099 108.695 283.355 118.048C286.61 127.401 287.322 137.451 285.419 147.17" stroke="white" stroke-width="1.2" stroke-linecap="round" stroke-linejoin="round"/>
<path d="M285.419 90.2653C289.486 93.6038 292.726 97.8364 294.888 102.633" stroke="white" stroke-width="1.2" stroke-linecap="round" stroke-linejoin="round"/>
<path d="M111.674 257.307L99.151 291.462C98.9632 291.971 98.9014 292.519 98.9707 293.057C99.0399 293.596 99.2383 294.11 99.5488 294.556C99.8593 295.001 100.273 295.365 100.754 295.617C101.236 295.868 101.771 296 102.314 296H279.357C279.901 296 280.436 295.868 280.918 295.617C281.4 295.366 281.814 295.002 282.126 294.557C282.437 294.112 282.637 293.598 282.708 293.059C282.778 292.52 282.718 291.972 282.532 291.462L270.001 257.307C304.225 232.676 326.536 192.515 326.536 147.127" stroke="white" stroke-width="2" stroke-miterlimit="10" stroke-linejoin="round"/>
</svg>
